<svg width="30" height="22" viewBox="0 0 30 22" fill="none" xmlns="http://www.w3.org/2000/svg">
<path d="M0 1.9925C0 1.1675 0.669 0.5 1.4925 0.5H13.5075C13.9033 0.5 14.283 0.657245 14.5629 0.937143C14.8428 1.21704 15 1.59666 15 1.9925C15 2.38834 14.8428 2.76796 14.5629 3.04786C14.283 3.32775 13.9033 3.485 13.5075 3.485H1.4925C1.09666 3.485 0.717041 3.32775 0.437143 3.04786C0.157245 2.76796 0 2.38834 0 1.9925V1.9925ZM0 11C0 10.175 0.669 9.5075 1.4925 9.5075H28.5075C28.9033 9.5075 29.283 9.66474 29.5629 9.94464C29.8428 10.2245 30 10.6042 30 11C30 11.3958 29.8428 11.7755 29.5629 12.0554C29.283 12.3353 28.9033 12.4925 28.5075 12.4925H1.4925C1.09666 12.4925 0.717041 12.3353 0.437143 12.0554C0.157245 11.7755 0 11.3958 0 11V11ZM1.4925 18.515C1.09666 18.515 0.717041 18.6722 0.437143 18.9521C0.157245 19.232 0 19.6117 0 20.0075C0 20.4033 0.157245 20.783 0.437143 21.0629C0.717041 21.3428 1.09666 21.5 1.4925 21.5H19.5075C19.9033 21.5 20.283 21.3428 20.5629 21.0629C20.8428 20.783 21 20.4033 21 20.0075C21 19.6117 20.8428 19.232 20.5629 18.9521C20.283 18.6722 19.9033 18.515 19.5075 18.515H1.4925Z" fill="#88888E"/>
</svg>
